<svg width="26" height="19" viewBox="0 0 26 19" fill="none" xmlns="http://www.w3.org/2000/svg">
<path d="M6.79688 3.89453H8.60933V14.2693H6.79688V3.89453Z" fill="#5265E8"/>
<path d="M7.61035 14.2675V5.17535C7.61035 4.75417 7.62393 4.33027 7.61035 3.90908V3.89006L6.79515 4.70526H8.6076L7.79241 3.89006V12.9822C7.79241 13.4034 7.77882 13.8273 7.79241 14.2485V14.2675L8.6076 13.4523H6.79515C6.36853 13.4523 5.96093 13.8273 5.97995 14.2675C5.99897 14.7105 6.33864 15.0827 6.79515 15.0827H8.6076C9.04781 15.0827 9.4228 14.7105 9.4228 14.2675V5.17535C9.4228 4.75417 9.43095 4.33027 9.4228 3.90908V3.89006C9.4228 3.44985 9.05053 3.07486 8.6076 3.07486H6.79515C6.35494 3.07486 5.97995 3.44713 5.97995 3.89006V12.9822C5.97995 13.4034 5.9718 13.8273 5.97995 14.2485V14.2675C5.97995 14.6942 6.35494 15.1018 6.79515 15.0827C7.23807 15.0637 7.61035 14.724 7.61035 14.2675ZM4.70824 14.2675V5.17535C4.70824 4.75417 4.71639 4.33027 4.70824 3.90908V3.89006C4.70824 3.46344 4.33325 3.05584 3.89304 3.07486C3.45012 3.09388 3.07784 3.43355 3.07784 3.89006V12.9822C3.07784 13.4034 3.06969 13.8273 3.07784 14.2485V14.2675C3.07784 14.6942 3.45283 15.1018 3.89304 15.0827C4.33325 15.0637 4.70824 14.724 4.70824 14.2675ZM10.6293 3.89278V12.985C10.6293 13.4061 10.6211 13.83 10.6293 14.2512V14.2703C10.6293 14.6969 11.0043 15.1045 11.4445 15.0854C11.8874 15.0664 12.2597 14.7268 12.2597 14.2703V5.17807C12.2597 4.75689 12.2678 4.33298 12.2597 3.9118V3.89278C12.2597 3.46615 11.8847 3.05856 11.4445 3.07758C11.0043 3.0966 10.6293 3.43626 10.6293 3.89278ZM15.0069 3.89278H16.2732V14.2675H15.0069V3.89278Z" fill="#5265E8"/>
<path d="M14.1931 3.89396V12.9861C14.1931 13.4073 14.1849 13.8312 14.1931 14.2524V14.2714C14.1931 14.7116 14.5654 15.0866 15.0083 15.0866H16.2745C16.7148 15.0866 17.0897 14.7144 17.0897 14.2714V5.17926C17.0897 4.75807 17.0979 4.33417 17.0897 3.91298V3.89396C17.0897 3.45376 16.7175 3.07877 16.2745 3.07877H15.0083C14.5817 3.07877 14.1713 3.45376 14.1931 3.89396C14.2121 4.33689 14.5518 4.70916 15.0083 4.70916H16.2745L15.4594 3.89396V12.9861C15.4594 13.4073 15.4458 13.8312 15.4594 14.2524V14.2714L16.2745 13.4562H15.0083L15.8235 14.2714V5.17926C15.8235 4.75807 15.8316 4.33417 15.8235 3.91298V3.89396C15.8235 3.46734 15.4485 3.05974 15.0083 3.07877C14.5654 3.09779 14.1931 3.43745 14.1931 3.89396ZM19.3288 3.89396H21.6983V14.2687H19.3288V3.89396Z" fill="#5265E8"/>
<path d="M20.1436 14.2687V5.17651C20.1436 4.75532 20.1571 4.33142 20.1436 3.91024V3.89121L19.3284 4.70641H21.6979L20.8827 3.89121V12.9834C20.8827 13.4046 20.8691 13.8285 20.8827 14.2497V14.2687L21.6979 13.4535H19.3284C18.9017 13.4535 18.4941 13.8285 18.5132 14.2687C18.5322 14.7116 18.8718 15.0839 19.3284 15.0839H21.6979C22.1381 15.0839 22.5131 14.7116 22.5131 14.2687V5.17651C22.5131 4.75532 22.5212 4.33142 22.5131 3.91024V3.89121C22.5131 3.45101 22.1408 3.07601 21.6979 3.07601H19.3284C18.8881 3.07601 18.5132 3.44829 18.5132 3.89121V12.9834C18.5132 13.4046 18.505 13.8285 18.5132 14.2497V14.2687C18.5132 14.6953 18.8881 15.1029 19.3284 15.0839C19.7713 15.0649 20.1436 14.7252 20.1436 14.2687ZM1.6304 4.38848V0.815198L0.815198 1.6304H4.38848C4.81511 1.6304 5.2227 1.25541 5.20368 0.815198C5.18466 0.372274 4.845 0 4.38848 0H0.815198C0.374991 0 0 0.372274 0 0.815198V4.38848C0 4.8151 0.374991 5.2227 0.815198 5.20368C1.25812 5.18466 1.6304 4.845 1.6304 4.38848ZM25.5918 4.38848V0.815198C25.5918 0.374991 25.2195 0 24.7766 0H21.2033C20.7767 0 20.3691 0.374991 20.3881 0.815198C20.4071 1.25812 20.7468 1.6304 21.2033 1.6304H24.7766L23.9614 0.815198V4.38848C23.9614 4.8151 24.3364 5.2227 24.7766 5.20368C25.2168 5.18466 25.5918 4.845 25.5918 4.38848ZM0 13.7741V17.3474C0 17.7876 0.372274 18.1626 0.815198 18.1626H4.38848C4.81511 18.1626 5.2227 17.7876 5.20368 17.3474C5.18466 16.9045 4.845 16.5322 4.38848 16.5322H0.815198L1.6304 17.3474V13.7741C1.6304 13.3475 1.25541 12.9399 0.815198 12.9589C0.374991 12.978 0 13.3176 0 13.7741ZM23.9614 13.7741V17.3474L24.7766 16.5322H21.2033C20.7767 16.5322 20.3691 16.9072 20.3881 17.3474C20.4071 17.7903 20.7468 18.1626 21.2033 18.1626H24.7766C25.2168 18.1626 25.5918 17.7903 25.5918 17.3474V13.7741C25.5918 13.3475 25.2168 12.9399 24.7766 12.9589C24.3337 12.978 23.9614 13.3176 23.9614 13.7741Z" fill="#5265E8"/>
</svg>
