<svg width="42" height="42" viewBox="0 0 42 42" fill="none" xmlns="http://www.w3.org/2000/svg">
<path d="M37.55 37.8V38.05H37.8H39.9C40.3906 38.05 40.8612 38.2449 41.2081 38.5919C41.5551 38.9388 41.75 39.4093 41.75 39.9C41.75 40.3906 41.5551 40.8612 41.2081 41.2081C40.8612 41.5551 40.3906 41.75 39.9 41.75H2.1C1.60935 41.75 1.13879 41.5551 0.791853 41.2081C0.44491 40.8612 0.25 40.3906 0.25 39.9C0.25 39.4093 0.44491 38.9388 0.791852 38.5919C1.13879 38.2449 1.60935 38.05 2.1 38.05H4.2H4.45V37.8V2.1C4.45 1.60935 4.64491 1.13879 4.99185 0.791852C5.3388 0.44491 5.80935 0.25 6.3 0.25H35.7C36.1907 0.25 36.6612 0.44491 37.0081 0.791852C37.3551 1.13879 37.55 1.60935 37.55 2.1V37.8ZM23.1 38.05H23.35V37.8V29.4V29.15H23.1H18.9H18.65V29.4V37.8V38.05H18.9H23.1ZM33.6 38.05H33.85V37.8V4.2V3.95H33.6H8.4H8.15V4.2V37.8V38.05H8.4H14.7H14.95V37.8V27.3C14.95 26.8093 15.1449 26.3388 15.4919 25.9919C15.8388 25.6449 16.3093 25.45 16.8 25.45H25.2C25.6906 25.45 26.1612 25.6449 26.5081 25.9919C26.8551 26.3388 27.05 26.8093 27.05 27.3V37.8V38.05H27.3H33.6ZM27.3 12.35H25.2C24.7093 12.35 24.2388 12.1551 23.8919 11.8081C23.5449 11.4612 23.35 10.9907 23.35 10.5C23.35 10.0093 23.5449 9.53879 23.8919 9.19185C24.2388 8.84491 24.7093 8.65 25.2 8.65H27.3C27.7906 8.65 28.2612 8.84491 28.6081 9.19185C28.9551 9.53879 29.15 10.0093 29.15 10.5C29.15 10.9907 28.9551 11.4612 28.6081 11.8081C28.2612 12.1551 27.7906 12.35 27.3 12.35ZM27.3 20.75H25.2C24.7093 20.75 24.2388 20.5551 23.8919 20.2081C23.5449 19.8612 23.35 19.3906 23.35 18.9C23.35 18.4093 23.5449 17.9388 23.8919 17.5919C24.2388 17.2449 24.7093 17.05 25.2 17.05H27.3C27.7906 17.05 28.2612 17.2449 28.6081 17.5919C28.9551 17.9388 29.15 18.4093 29.15 18.9C29.15 19.3906 28.9551 19.8612 28.6081 20.2081C28.2612 20.5551 27.7906 20.75 27.3 20.75ZM16.8 12.35H14.7C14.2093 12.35 13.7388 12.1551 13.3919 11.8081C13.0449 11.4612 12.85 10.9907 12.85 10.5C12.85 10.0093 13.0449 9.53879 13.3919 9.19185C13.7388 8.84491 14.2093 8.65 14.7 8.65H16.8C17.2906 8.65 17.7612 8.84491 18.1081 9.19185C18.4551 9.53879 18.65 10.0093 18.65 10.5C18.65 10.9907 18.4551 11.4612 18.1081 11.8081C17.7612 12.1551 17.2906 12.35 16.8 12.35ZM16.8 20.75H14.7C14.2093 20.75 13.7388 20.5551 13.3919 20.2081C13.0449 19.8612 12.85 19.3906 12.85 18.9C12.85 18.4093 13.0449 17.9388 13.3919 17.5919C13.7388 17.2449 14.2093 17.05 14.7 17.05H16.8C17.2906 17.05 17.7612 17.2449 18.1081 17.5919C18.4551 17.9388 18.65 18.4093 18.65 18.9C18.65 19.3906 18.4551 19.8612 18.1081 20.2081C17.7612 20.5551 17.2906 20.75 16.8 20.75Z" fill="white" stroke="#1BB1B9" stroke-width="0.5"/>
</svg>
