<svg width="24" height="24" viewBox="0 0 24 24" fill="none" xmlns="http://www.w3.org/2000/svg">
<path fill-rule="evenodd" clip-rule="evenodd" d="M5.44216 8.11338e-05C5.29819 0.00177866 5.15598 0.0319459 5.02373 0.0888424C4.89149 0.145739 4.77183 0.228239 4.67166 0.331582C4.57148 0.434925 4.49278 0.557066 4.44008 0.690959C4.38739 0.824852 4.36174 0.967847 4.36463 1.11169V2.19715H1.09498C0.951026 2.19657 0.808381 2.22448 0.675272 2.27926C0.542163 2.33405 0.421225 2.41462 0.319433 2.51634C0.21764 2.61806 0.137007 2.73891 0.0821834 2.87192C0.0273602 3.00493 -0.000568222 3.14747 8.76078e-06 3.29132V22.9058C-0.000568222 23.0497 0.0273602 23.1922 0.0821834 23.3252C0.137007 23.4582 0.21764 23.5791 0.319433 23.6808C0.421225 23.7825 0.542163 23.8631 0.675272 23.9179C0.808381 23.9727 0.951026 24.0006 1.09498 24H22.905C23.049 24.0006 23.1916 23.9727 23.3247 23.9179C23.4578 23.8631 23.5788 23.7825 23.6806 23.6808C23.7824 23.5791 23.863 23.4582 23.9178 23.3252C23.9726 23.1922 24.0006 23.0497 24 22.9058V3.29132C24.0006 3.14747 23.9726 3.00493 23.9178 2.87192C23.863 2.73891 23.7824 2.61806 23.6806 2.51634C23.5788 2.41462 23.4578 2.33405 23.3247 2.27926C23.1916 2.22448 23.049 2.19657 22.905 2.19715H19.6375V1.11169C19.6375 0.822367 19.5225 0.544891 19.3178 0.340306C19.1131 0.135722 18.8354 0.0207877 18.5458 0.0207877C18.2563 0.0207877 17.9786 0.135722 17.7739 0.340306C17.5692 0.544891 17.4541 0.822367 17.4541 1.11169V2.19715H13.0917V1.11169C13.0917 0.822367 12.9767 0.544891 12.7719 0.340306C12.5672 0.135722 12.2895 0.0207877 12 0.0207877C11.7105 0.0207877 11.4328 0.135722 11.228 0.340306C11.0233 0.544891 10.9083 0.822367 10.9083 1.11169V2.19715H6.54585V1.11169C6.54879 0.965645 6.52231 0.820499 6.46799 0.68488C6.41368 0.549261 6.33263 0.425937 6.22967 0.322239C6.12671 0.218542 6.00394 0.136586 5.86865 0.0812425C5.73337 0.0258994 5.58833 -0.00170123 5.44216 8.11338e-05V8.11338e-05ZM2.18123 4.37896H4.36463V5.47313C4.33191 6.95855 6.57857 6.95855 6.54585 5.47313V4.37896H10.9083V5.47313C10.9083 6.92804 13.0917 6.92804 13.0917 5.47313V4.37896H17.4541V5.47313C17.4541 6.92804 19.6375 6.92804 19.6375 5.47313V4.37896H21.8188V8.73822H2.18123V4.37896ZM2.18123 10.9178H21.8188V21.8204H2.18123V10.9178ZM9.81987 13.0975C9.53062 13.0975 9.25322 13.2123 9.04869 13.4167C8.84416 13.6211 8.72926 13.8983 8.72926 14.1873C8.72926 14.4763 8.84416 14.7535 9.04869 14.9579C9.25322 15.1623 9.53062 15.2771 9.81987 15.2771C10.1091 15.2771 10.3865 15.1623 10.591 14.9579C10.7956 14.7535 10.9105 14.4763 10.9105 14.1873C10.9105 13.8983 10.7956 13.6211 10.591 13.4167C10.3865 13.2123 10.1091 13.0975 9.81987 13.0975ZM14.1823 13.0975C13.8931 13.0975 13.6157 13.2123 13.4111 13.4167C13.2066 13.6211 13.0917 13.8983 13.0917 14.1873C13.0917 14.4763 13.2066 14.7535 13.4111 14.9579C13.6157 15.1623 13.8931 15.2771 14.1823 15.2771C14.4716 15.2771 14.749 15.1623 14.9535 14.9579C15.158 14.7535 15.2729 14.4763 15.2729 14.1873C15.2729 13.8983 15.158 13.6211 14.9535 13.4167C14.749 13.2123 14.4716 13.0975 14.1823 13.0975ZM18.5448 13.0975C18.2555 13.0975 17.9781 13.2123 17.7736 13.4167C17.569 13.6211 17.4541 13.8983 17.4541 14.1873C17.4541 14.4763 17.569 14.7535 17.7736 14.9579C17.9781 15.1623 18.2555 15.2771 18.5448 15.2771C18.834 15.2771 19.1114 15.1623 19.3159 14.9579C19.5205 14.7535 19.6354 14.4763 19.6354 14.1873C19.6354 13.8983 19.5205 13.6211 19.3159 13.4167C19.1114 13.2123 18.834 13.0975 18.5448 13.0975ZM5.45742 17.4567C5.16818 17.4567 4.89078 17.5716 4.68625 17.7759C4.48172 17.9803 4.36681 18.2575 4.36681 18.5466C4.36681 18.8356 4.48172 19.1128 4.68625 19.3172C4.89078 19.5216 5.16818 19.6364 5.45742 19.6364C5.74667 19.6364 6.02407 19.5216 6.2286 19.3172C6.43313 19.1128 6.54804 18.8356 6.54804 18.5466C6.54804 18.2575 6.43313 17.9803 6.2286 17.7759C6.02407 17.5716 5.74667 17.4567 5.45742 17.4567ZM9.81987 17.4567C9.53062 17.4567 9.25322 17.5716 9.04869 17.7759C8.84416 17.9803 8.72926 18.2575 8.72926 18.5466C8.72926 18.8356 8.84416 19.1128 9.04869 19.3172C9.25322 19.5216 9.53062 19.6364 9.81987 19.6364C10.1091 19.6364 10.3865 19.5216 10.591 19.3172C10.7956 19.1128 10.9105 18.8356 10.9105 18.5466C10.9105 18.2575 10.7956 17.9803 10.591 17.7759C10.3865 17.5716 10.1091 17.4567 9.81987 17.4567ZM14.1823 17.4567C13.8931 17.4567 13.6157 17.5716 13.4111 17.7759C13.2066 17.9803 13.0917 18.2575 13.0917 18.5466C13.0917 18.8356 13.2066 19.1128 13.4111 19.3172C13.6157 19.5216 13.8931 19.6364 14.1823 19.6364C14.4716 19.6364 14.749 19.5216 14.9535 19.3172C15.158 19.1128 15.2729 18.8356 15.2729 18.5466C15.2729 18.2575 15.158 17.9803 14.9535 17.7759C14.749 17.5716 14.4716 17.4567 14.1823 17.4567Z" fill="#5265E8"/>
</svg>
