<svg width="16" height="16" viewBox="0 0 16 16" fill="none" xmlns="http://www.w3.org/2000/svg">
<path d="M8.00025 11.999C7.86864 11.9998 7.73818 11.9746 7.61634 11.9248C7.49451 11.875 7.38369 11.8017 7.29025 11.709L3.29026 7.70905C3.12644 7.51775 3.04083 7.27167 3.05055 7.01999C3.06027 6.76832 3.1646 6.52958 3.3427 6.35149C3.52079 6.17339 3.75953 6.06906 4.01121 6.05934C4.26288 6.04962 4.50896 6.13522 4.70026 6.29905L8.00025 9.58904L11.2902 6.29905C11.4815 6.13522 11.7276 6.04962 11.9793 6.05934C12.231 6.06906 12.4697 6.17339 12.6478 6.35149C12.8259 6.52958 12.9302 6.76832 12.9399 7.01999C12.9497 7.27167 12.8641 7.51775 12.7002 7.70905L8.70025 11.709C8.51399 11.8938 8.26259 11.9979 8.00025 11.999Z" fill="#F9F9FF"/>
<path d="M7.99998 12C7.73476 12 7.48041 11.8946 7.29287 11.7071C7.10534 11.5195 6.99998 11.2652 6.99998 11V0.999997C6.99998 0.734782 7.10534 0.480429 7.29287 0.292893C7.48041 0.105357 7.73476 0 7.99998 0C8.26519 0 8.51955 0.105357 8.70708 0.292893C8.89462 0.480429 8.99998 0.734782 8.99998 0.999997V11C8.99998 11.2652 8.89462 11.5195 8.70708 11.7071C8.51955 11.8946 8.26519 12 7.99998 12ZM15 16H0.999997C0.734782 16 0.480429 15.8946 0.292893 15.7071C0.105357 15.5195 0 15.2652 0 15C0 14.7347 0.105357 14.4804 0.292893 14.2929C0.480429 14.1053 0.734782 14 0.999997 14H15C15.2652 14 15.5195 14.1053 15.7071 14.2929C15.8946 14.4804 16 14.7347 16 15C16 15.2652 15.8946 15.5195 15.7071 15.7071C15.5195 15.8946 15.2652 16 15 16Z" fill="#F9F9FF"/>
</svg>
