<svg xmlns="http://www.w3.org/2000/svg" viewBox="0 0 351.02 131.94"><defs><style>.cls-1{font-size:49.95px;font-family:Roboto, Roboto;font-weight:400;}.cls-1,.cls-7{fill:#163253;}.cls-2{letter-spacing:-0.02em;}.cls-3{letter-spacing:0em;}.cls-4{letter-spacing:-0.02em;}.cls-5{letter-spacing:0em;}.cls-6{font-size:37.94px;font-family:Roboto, Roboto;font-weight:500;letter-spacing:0.1em;}.cls-6,.cls-8{fill:#1bacb8;}</style></defs><g id="Layer_2" data-name="Layer 2"><g id="Layer_1-2" data-name="Layer 1"><text class="cls-1" transform="translate(0 77.28)"><tspan class="cls-2">r</tspan><tspan x="16.03" y="0">e</tspan><tspan class="cls-3" x="45.16" y="0">c</tspan><tspan x="72.13" y="0">o</tspan><tspan class="cls-4" x="101.7" y="0">r</tspan><tspan class="cls-5" x="117.84" y="0">d </tspan></text><text class="cls-6" transform="translate(246.56 76.89)">TIME</text><polygon class="cls-7" points="286.74 98.4 260.63 124.69 250.17 114.23 246.97 117.43 260.64 131.1 289.95 101.59 286.74 98.4"/><rect class="cls-7" x="238.96" y="113.31" width="4.52" height="18.81" transform="translate(-18.93 197.31) rotate(-42.96)"/>
<rect class="cls-7" x="255.6" y="105.27" width="22.13" height="4.52" transform="translate(3.48 223.32) rotate(-45.71)"/><path class="cls-7" d="M214.16,19.32A65.54,65.54,0,0,0,167.51,0,66.37,66.37,0,0,0,148.7,2.71V6.05a62.78,62.78,0,1,1,0,119.84v3.34a66.37,66.37,0,0,0,18.81,2.71A66,66,0,0,0,214.16,19.32Z"/>
<rect class="cls-8" x="166.66" y="9.32" width="4.33" height="57.68"/>
<rect class="cls-8" x="186.92" y="61.73" width="4.33" height="43.17" transform="translate(9.67 185.66) rotate(-53.86)"/></g></g></svg>